HIERARCHY
ROOT hip
{
  OFFSET 0 0 0
  CHANNELS 6 Xposition Yposition Zposition Zrotation Yrotation Xrotation
  JOINT abdomen
  {
    OFFSET 0 20.6881 -0.73152
    CHANNELS 3 Zrotation Xrotation Yrotation
    JOINT chest
    {
      OFFSET 0 11.7043 -0.48768
      CHANNELS 3 Zrotation Xrotation Yrotation
      JOINT neck
      {
        OFFSET 0 22.1894 -2.19456
        CHANNELS 3 Zrotation Xrotation Yrotation
        JOINT head
        {
          OFFSET -0.24384 7.07133 1.2192
          CHANNELS 3 Zrotation Xrotation Yrotation
          JOINT leftEye
          {
            OFFSET 4.14528 8.04674 8.04672
            CHANNELS 3 Zrotation Xrotation Yrotation
            End Site
            {
              OFFSET 1 0 0
            }
          }
          JOINT rightEye
          {
            OFFSET -3.6576 8.04674 8.04672
            CHANNELS 3 Zrotation Xrotation Yrotation
            End Site
            {
              OFFSET 1 0 0
            }
          }
        }
      }
      JOINT rCollar
      {
        OFFSET -2.68224 19.2634 -4.8768
        CHANNELS 3 Zrotation Xrotation Yrotation
        JOINT rShldr
        {
          OFFSET -8.77824 -1.95073 1.46304
          CHANNELS 3 Zrotation Xrotation Yrotation
          JOINT rForeArm
          {
            OFFSET -28.1742 -1.7115 0.48768
            CHANNELS 3 Zrotation Xrotation Yrotation
            JOINT rHand
            {
              OFFSET -22.5879 0.773209 7.07136
              CHANNELS 3 Zrotation Xrotation Yrotation
              JOINT rThumb1
              {
                OFFSET -1.2192 -0.487915 3.41376
                CHANNELS 3 Zrotation Xrotation Yrotation
                JOINT rThumb2
                {
                  OFFSET -3.37035 -0.52449 3.41376
                  CHANNELS 3 Zrotation Xrotation Yrotation
                  End Site
                  {
                    OFFSET -1.78271 -1.18214 1.43049
                  }
                }
              }
              JOINT rIndex1
              {
                OFFSET -7.75947 0.938293 5.60832
                CHANNELS 3 Zrotation Xrotation Yrotation
                JOINT rIndex2
                {
                  OFFSET -2.54057 -0.884171 1.56538
                  CHANNELS 3 Zrotation Xrotation Yrotation
                  End Site
                  {
                    OFFSET -1.62519 -0.234802 1.16502
                  }
                }
              }
              JOINT rMid1
              {
                OFFSET -8.24714 1.18213 3.41376
                CHANNELS 3 Zrotation Xrotation Yrotation
                JOINT rMid2
                {
                  OFFSET -3.10165 -0.590103 1.0647
                  CHANNELS 3 Zrotation Xrotation Yrotation
                  End Site
                  {
                    OFFSET -2.48547 -0.328903 0.83742
                  }
                }
              }
              JOINT rRing1
              {
                OFFSET -8.82822 0.546677 1.51678
                CHANNELS 3 Zrotation Xrotation Yrotation
                JOINT rRing2
                {
                  OFFSET -2.60934 -0.819778 -0.0198488
                  CHANNELS 3 Zrotation Xrotation Yrotation
                  End Site
                  {
                    OFFSET -2.33842 -0.294052 0.168128
                  }
                }
              }
              JOINT rPinky1
              {
                OFFSET -8.27202 -0.0477905 -0.4584
                CHANNELS 3 Zrotation Xrotation Yrotation
                JOINT rPinky2
                {
                  OFFSET -1.82734 -0.647385 -0.700984
                  CHANNELS 3 Zrotation Xrotation Yrotation
                  End Site
                  {
                    OFFSET -1.69225 -0.51767 -0.607171
                  }
                }
              }
            }
          }
        }
      }
      JOINT lCollar
      {
        OFFSET 2.68224 19.2634 -4.8768
        CHANNELS 3 Zrotation Xrotation Yrotation
        JOINT lShldr
        {
          OFFSET 8.77824 -1.95073 1.46304
          CHANNELS 3 Zrotation Xrotation Yrotation
          JOINT lForeArm
          {
            OFFSET 28.1742 -1.7115 0.48768
            CHANNELS 3 Zrotation Xrotation Yrotation
            JOINT lHand
            {
              OFFSET 22.5879 0.773209 7.07136
              CHANNELS 3 Zrotation Xrotation Yrotation
              JOINT lThumb1
              {
                OFFSET 1.2192 -0.487915 3.41376
                CHANNELS 3 Zrotation Xrotation Yrotation
                JOINT lThumb2
                {
                  OFFSET 3.37035 -0.52449 3.41376
                  CHANNELS 3 Zrotation Xrotation Yrotation
                  End Site
                  {
                    OFFSET 1.78271 -1.18214 1.43049
                  }
                }
              }
              JOINT lIndex1
              {
                OFFSET 7.75947 0.938293 5.60832
                CHANNELS 3 Zrotation Xrotation Yrotation
                JOINT lIndex2
                {
                  OFFSET 2.54057 -0.884171 1.56538
                  CHANNELS 3 Zrotation Xrotation Yrotation
                  End Site
                  {
                    OFFSET 1.62519 -0.234802 1.16502
                  }
                }
              }
              JOINT lMid1
              {
                OFFSET 8.24714 1.18213 3.41376
                CHANNELS 3 Zrotation Xrotation Yrotation
                JOINT lMid2
                {
                  OFFSET 3.10165 -0.590103 1.0647
                  CHANNELS 3 Zrotation Xrotation Yrotation
                  End Site
                  {
                    OFFSET 2.48547 -0.328903 0.83742
                  }
                }
              }
              JOINT lRing1
              {
                OFFSET 8.82822 0.546677 1.51678
                CHANNELS 3 Zrotation Xrotation Yrotation
                JOINT lRing2
                {
                  OFFSET 2.60934 -0.819778 -0.0198488
                  CHANNELS 3 Zrotation Xrotation Yrotation
                  End Site
                  {
                    OFFSET 2.33842 -0.294052 0.168128
                  }
                }
              }
              JOINT lPinky1
              {
                OFFSET 8.27202 -0.0477905 -0.4584
                CHANNELS 3 Zrotation Xrotation Yrotation
                JOINT lPinky2
                {
                  OFFSET 1.82734 -0.647385 -0.700984
                  CHANNELS 3 Zrotation Xrotation Yrotation
                  End Site
                  {
                    OFFSET 1.69225 -0.51767 -0.607171
                  }
                }
              }
            }
          }
        }
      }
    }
  }
  JOINT rButtock
  {
    OFFSET -8.77824 4.35084 1.2192
    CHANNELS 3 Zrotation Xrotation Yrotation
    JOINT rThigh
    {
      OFFSET 0 -1.70687 -2.19456
      CHANNELS 3 Zrotation Xrotation Yrotation
      JOINT rShin
      {
        OFFSET 0 -36.8199 0.73152
        CHANNELS 3 Zrotation Xrotation Yrotation
        JOINT rFoot
        {
          OFFSET 0.73152 -45.1104 -5.12064
          CHANNELS 3 Zrotation Xrotation Yrotation
          End Site
          {
            OFFSET -1.1221 -3.69964 12.103
          }
        }
      }
    }
  }
  JOINT lButtock
  {
    OFFSET 8.77824 4.35084 1.2192
    CHANNELS 3 Zrotation Xrotation Yrotation
    JOINT lThigh
    {
      OFFSET 0 -1.70687 -2.19456
      CHANNELS 3 Zrotation Xrotation Yrotation
      JOINT lShin
      {
        OFFSET 0 -36.8199 0.73152
        CHANNELS 3 Zrotation Xrotation Yrotation
        JOINT lFoot
        {
          OFFSET -0.73152 -45.1104 -5.12064
          CHANNELS 3 Zrotation Xrotation Yrotation
          End Site
          {
            OFFSET 1.1221 -3.69964 12.103
          }
        }
      }
    }
  }
}
MOTION
Frames:	7
Frame Time:	0.00833333
-0.290385 83.9958 -162.569 0.0 0.0 0.0 -1.70022 -0.00276352 -0.0463328 -0.469052 0.00196666 -0.0812255 2.48006e-14 -1.59028e-15 1.73937e-16 7.45101e-14 3.18055e-15 4.22417e-16 -0.0 0.0 0.0 -0.0 0.0 0.0 1.22242e-14 -2.98953e-17 9.93923e-17 2.61263e-13 -6.27414e-16 3.18055e-15 4.44497e-12 -1.35929e-12 3.18055e-15 5.1014e-11 1.21952e-12 3.02153e-13 1.20301e-10 -3.04222e-13 6.58375e-13 2.07752e-10 -5.27972e-13 1.12035e-12 1.20307e-10 -2.99767e-13 6.45653e-13 7.73091 5.47488 0.417314 1.20301e-10 -3.03445e-13 6.48833e-13 2.90554 0.965183 0.102902 1.20313e-10 -3.03246e-13 6.51219e-13 10.2786 0.731801 0.0259123 1.20303e-10 -3.06526e-13 6.58375e-13 2.22167 -0.733487 -0.20892 1.23266e-14 -3.37779e-17 -4.96962e-17 2.56126e-13 -8.19987e-16 9.93923e-16 4.46843e-12 1.30681e-12 -2.54444e-14 5.09808e-11 -1.45694e-12 3.27597e-13 1.20286e-10 -3.26204e-13 6.45653e-13 2.07729e-10 -5.62958e-13 1.12433e-12 1.20278e-10 -3.20838e-13 6.55194e-13 -7.73091 5.47488 -0.417314 1.20284e-10 -3.24914e-13 6.48833e-13 -2.90554 0.965183 -0.102902 1.20277e-10 -3.2541e-13 6.49628e-13 -10.2786 0.731801 -0.0259123 1.20285e-10 -3.26404e-13 6.42472e-13 -2.22167 -0.733487 0.20892 -2.03217e-16 0.0 -3.88251e-19 -0.81527 -1.92421 -0.00353226 -0.00895443 -2.0786 -0.0737735 -0.474508 3.99777 0.134755 2.03217e-16 0.0 3.88251e-19 -1.7736 -6.84758 0.169534 -0.00326648 6.83968 -0.0864329 0.504732 0.00295342 -0.0573591
-2.19159 82.6017 -162.14 -6.8106 -5.5858 -1.904 0.674494 3.23366 1.02127 -0.675681 -0.248621 0.287841 0.146657 -1.07387 -0.908354 0.299605 -2.13689 -1.82289 -0.0 0.0 0.0 -0.0 0.0 0.0 6.80815e-14 -1.72043e-14 5.86621e-14 21.8419 3.1864 1.81687 -4.73832 -2.26727 7.27263 1.56066e-05 -0.12485 -0.0175466 -9.6646e-10 9.9166e-10 8.99776e-11 -1.67007e-09 1.71478e-09 1.5714e-10 -9.66452e-10 9.91662e-10 8.99651e-11 7.73091 5.47488 0.417314 -9.66459e-10 9.91659e-10 8.99706e-11 2.90554 0.965183 0.102902 -9.66449e-10 9.91659e-10 8.99718e-11 10.2786 0.731801 0.0259123 -9.66458e-10 9.91657e-10 8.99776e-11 2.22167 -0.733487 -0.20892 6.81212e-14 -1.72073e-14 5.84415e-14 -21.1016 8.28829 0.28998 5.30706 -2.67506 -7.98482 -0.00110313 -0.750426 0.105435 -9.31083e-10 -1.20846e-09 -2.90254e-10 -1.6099e-09 -2.09038e-09 -5.02479e-10 -9.3109e-10 -1.20846e-09 -2.90246e-10 -7.73091 5.47488 -0.417314 -9.31084e-10 -1.20846e-09 -2.90253e-10 -2.90554 0.965183 -0.102902 -9.31089e-10 -1.20846e-09 -2.90253e-10 -10.2786 0.731801 -0.0259123 -9.31082e-10 -1.20846e-09 -2.90262e-10 -2.22167 -0.733487 0.20892 -2.03217e-16 0.0 -3.88251e-19 3.15486 -4.12936 1.80327 0.00594617 6.0593 0.0583089 -0.525216 -0.87675 -0.530927 2.03217e-16 0.0 3.88251e-19 1.11792 -14.3757 0.494501 0.0380692 18.8762 -0.242322 0.559097 -1.85472 0.427414
-2.2226 82.6397 -161.457 -6.9864 -5.5457 -1.7842 3.04806 6.65122 2.14894 -0.893362 -0.492233 0.674761 0.280429 -2.24584 -1.87086 0.464952 -4.3761 -3.76599 -0.0 0.0 0.0 -0.0 0.0 0.0 1.30527e-13 -3.62914e-14 1.23566e-13 44.7238 6.52011 3.76858 -9.12298 -4.53931 14.9912 -6.04379e-05 -0.246583 -0.0346555 -2.17189e-09 2.08404e-09 1.80834e-10 -3.75294e-09 3.60367e-09 3.15953e-10 -2.17189e-09 2.08404e-09 1.80822e-10 7.73091 5.47488 0.417314 -2.17189e-09 2.08404e-09 1.8083e-10 2.90554 0.965183 0.102902 -2.17189e-09 2.08404e-09 1.8083e-10 10.2786 0.731801 0.0259123 -2.17189e-09 2.08404e-09 1.80834e-10 2.22167 -0.733487 -0.20892 1.30502e-13 -3.62937e-14 1.23268e-13 -43.4788 17.0934 0.582336 10.1443 -5.35342 -16.5271 0.000776496 -1.56017 0.219267 -2.10242e-09 -2.55165e-09 -6.15506e-10 -3.63494e-09 -4.41381e-09 -1.06554e-09 -2.10242e-09 -2.55165e-09 -6.15498e-10 -7.73091 5.47488 -0.417314 -2.10242e-09 -2.55165e-09 -6.15507e-10 -2.90554 0.965183 -0.102902 -2.10242e-09 -2.55165e-09 -6.15507e-10 -10.2786 0.731801 -0.0259123 -2.10241e-09 -2.55165e-09 -6.15519e-10 -2.22167 -0.733487 0.20892 -2.03217e-16 0.0 -3.88251e-19 7.50015 -6.49673 3.72115 -0.01989 14.694 0.204666 -0.704142 -6.01731 -1.24966 2.03217e-16 0.0 3.88251e-19 4.26349 -22.3296 0.878415 0.166732 31.706 -0.450159 0.644883 -3.81493 0.898865
-2.23614 82.6662 -160.791 -7.0521 -5.6378 -1.5467 5.05787 9.69321 3.1973 -1.07926 -0.749685 1.02605 0.337726 -3.21837 -2.72889 0.489424 -6.38464 -5.49907 -0.0 0.0 0.0 -0.0 0.0 0.0 1.79796e-13 -5.1553e-14 1.75787e-13 64.9132 9.52048 5.51843 -12.5257 -6.36442 21.9429 -0.000182594 -0.374551 -0.0526409 -3.13998e-09 2.97559e-09 2.68616e-10 -5.42573e-09 5.1454e-09 4.6918e-10 -3.13997e-09 2.97559e-09 2.68604e-10 7.73091 5.47488 0.417314 -3.13998e-09 2.97558e-09 2.68614e-10 2.90554 0.965183 0.102902 -3.13997e-09 2.97558e-09 2.68613e-10 10.2786 0.731801 0.0259123 -3.13998e-09 2.97558e-09 2.68616e-10 2.22167 -0.733487 -0.20892 1.7971e-13 -5.15544e-14 1.75424e-13 -63.5782 24.8622 0.948793 13.7413 -7.40306 -24.1421 0.00498154 -2.25125 0.316521 -3.03382e-09 -3.62473e-09 -8.72054e-10 -5.24516e-09 -6.27001e-09 -1.50968e-09 -3.03383e-09 -3.62473e-09 -8.72048e-10 -7.73091 5.47488 -0.417314 -3.03382e-09 -3.62473e-09 -8.72057e-10 -2.90554 0.965183 -0.102902 -3.03382e-09 -3.62473e-09 -8.72058e-10 -10.2786 0.731801 -0.0259123 -3.03382e-09 -3.62473e-09 -8.72071e-10 -2.22167 -0.733487 0.20892 -2.03217e-16 0.0 -3.88251e-19 11.5158 -8.50755 5.46312 -0.0831841 22.3347 0.347467 -0.970216 -10.6203 -1.8939 2.03217e-16 0.0 3.88251e-19 7.19388 -29.4274 1.26343 0.386666 42.9476 -0.705266 0.762492 -5.56857 1.40291
-2.18656 82.6829 -160.101 -7.0035 -5.164 -1.2494 6.41143 11.8083 4.00954 -1.19102 -1.04182 1.28824 0.281965 -3.6957 -3.32151 0.44999 -7.84145 -6.67865 -0.0 0.0 0.0 -0.0 0.0 0.0 1.96126e-13 -5.72504e-14 1.963e-13 78.8046 11.7249 6.70042 -14.6439 -7.48595 26.859 -0.000329239 -0.518108 -0.0728173 -3.5147e-09 3.36504e-09 3.48713e-10 -6.07331e-09 5.81921e-09 6.08444e-10 -3.51469e-09 3.36504e-09 3.487e-10 7.73091 5.47488 0.417314 -3.5147e-09 3.36504e-09 3.48713e-10 2.90554 0.965183 0.102902 -3.51469e-09 3.36504e-09 3.4871e-10 10.2786 0.731801 0.0259123 -3.5147e-09 3.36504e-09 3.48713e-10 2.22167 -0.733487 -0.20892 1.9599e-13 -5.72511e-14 1.95902e-13 -77.8343 30.0408 1.4458 15.8 -8.50268 -29.2515 0.00859244 -2.64568 0.372093 -3.36541e-09 -4.02255e-09 -9.56844e-10 -5.81833e-09 -6.95814e-09 -1.65655e-09 -3.36541e-09 -4.02255e-09 -9.56838e-10 -7.73091 5.47488 -0.417314 -3.3654e-09 -4.02255e-09 -9.56848e-10 -2.90554 0.965183 -0.102902 -3.3654e-09 -4.02255e-09 -9.56849e-10 -10.2786 0.731801 -0.0259123 -3.3654e-09 -4.02255e-09 -9.56863e-10 -2.22167 -0.733487 0.20892 -2.03217e-16 0.0 -3.88251e-19 14.3973 -9.65701 6.72156 -0.151958 27.4913 0.454778 -1.20449 -13.8854 -2.3147 2.03217e-16 0.0 3.88251e-19 9.36042 -34.3893 1.54402 0.614743 50.22 -0.935296 0.906439 -6.80655 1.98401
-2.26376 82.7354 -159.418 -7.1319 -5.9606 -1.245 6.96942 12.6577 4.47585 -1.1891 -1.41687 1.42938 0.0756209 -3.45347 -3.54207 0.463648 -8.54069 -7.05803 -0.0 0.0 0.0 -0.0 0.0 0.0 1.64566e-13 -4.76944e-14 1.72566e-13 84.0634 12.8553 7.01569 -15.4508 -7.91034 28.8674 -0.000548561 -0.711552 -0.100006 -3.02106e-09 3.07549e-09 4.36759e-10 -5.22062e-09 5.3195e-09 7.60576e-10 -3.02105e-09 3.07549e-09 4.36744e-10 7.73091 5.47488 0.417314 -3.02106e-09 3.07549e-09 4.36761e-10 2.90554 0.965183 0.102902 -3.02105e-09 3.07549e-09 4.36757e-10 10.2786 0.731801 0.0259123 -3.02106e-09 3.07549e-09 4.3676e-10 2.22167 -0.733487 -0.20892 1.6439e-13 -4.76946e-14 1.72181e-13 -83.8358 31.4684 2.10602 16.2696 -8.63817 -30.6289 0.00845804 -2.58566 0.363645 -2.80318e-09 -3.41752e-09 -7.74063e-10 -4.84613e-09 -5.91151e-09 -1.34029e-09 -2.80318e-09 -3.41752e-09 -7.74055e-10 -7.73091 5.47488 -0.417314 -2.80318e-09 -3.41752e-09 -7.74065e-10 -2.90554 0.965183 -0.102902 -2.80318e-09 -3.41752e-09 -7.74066e-10 -10.2786 0.731801 -0.0259123 -2.80317e-09 -3.41751e-09 -7.7408e-10 -2.22167 -0.733487 0.20892 -2.03217e-16 0.0 -3.88251e-19 15.5615 -9.61007 7.27998 -0.182446 29.1743 0.489863 -1.26738 -15.298 -2.35684 2.03217e-16 0.0 3.88251e-19 10.3659 -36.3565 1.65339 0.684358 51.9387 -0.989527 1.06644 -7.34549 2.68134
-2.31252 82.7854 -158.753 -7.3795 -6.0211 -1.2121 6.99034 12.605 4.68562 -1.10726 -1.84954 1.48394 -0.232985 -2.69905 -3.49688 0.546316 -8.70393 -6.85985 -0.0 0.0 0.0 -0.0 0.0 0.0 9.88834e-14 -2.7332e-14 1.17221e-13 83.2073 13.2254 6.69854 -15.4276 -7.91989 28.7822 -0.000969356 -0.939294 -0.132019 -1.90895e-09 2.29979e-09 5.29593e-10 -3.29939e-09 3.97959e-09 9.20357e-10 -1.90894e-09 2.2998e-09 5.29575e-10 7.73091 5.47488 0.417314 -1.90895e-09 2.29979e-09 5.29595e-10 2.90554 0.965183 0.102902 -1.90894e-09 2.29979e-09 5.29591e-10 10.2786 0.731801 0.0259123 -1.90895e-09 2.29979e-09 5.29594e-10 2.22167 -0.733487 -0.20892 9.86746e-14 -2.73317e-14 1.16882e-13 -83.8563 30.2218 2.83472 15.7003 -8.17252 -29.3327 0.00584841 -2.2029 0.309743 -1.6051e-09 -2.09889e-09 -4.01451e-10 -2.77453e-09 -3.6305e-09 -6.95464e-10 -1.6051e-09 -2.09889e-09 -4.0144e-10 -7.73091 5.47488 -0.417314 -1.60509e-09 -2.09889e-09 -4.0145e-10 -2.90554 0.965183 -0.102902 -1.6051e-09 -2.09889e-09 -4.0145e-10 -10.2786 0.731801 -0.0259123 -1.60509e-09 -2.09889e-09 -4.01463e-10 -2.22167 -0.733487 0.20892 -2.03217e-16 0.0 -3.88251e-19 15.4712 -8.71436 7.33386 -0.174834 28.3761 0.466861 -1.18251 -15.3876 -2.12052 2.03217e-16 0.0 3.88251e-19 10.5099 -36.1857 1.61535 0.601738 49.6906 -0.882933 1.22576 -7.38368 3.45931
